<?xml version="1.0" encoding="UTF-8"?>
<svg id="Layer_2" data-name="Layer 2" xmlns="http://www.w3.org/2000/svg" viewBox="0 0 1630.04 288.5">
  <defs>
    <style>
      .cls-1 {
        fill: #f1f2ee;
      }

      .cls-2 {
        fill: #4caf50;
      }
    </style>
  </defs>
  <g id="Layer_1-2" data-name="Layer 1">
    <g>
      <path class="cls-1" d="m222.35,97.23c0,43.07-17.62,71.21-52.84,84.41-3.62,1.36-4.91,5.82-2.65,8.95l61.51,85.37c2.81,3.9.02,9.35-4.79,9.35h-45.2c-1.91,0-3.7-.93-4.81-2.48l-63.02-88.68c-1.11-1.56-2.9-2.48-4.81-2.48h-52.82c-3.26,0-5.9,2.64-5.9,5.9v81.84c0,3.26-2.64,5.9-5.9,5.9H5.9c-3.26,0-5.9-2.64-5.9-5.9V12.68c0-3.26,2.64-5.9,5.9-5.9h97.7c42.5,0,72.92,7.17,91.25,21.52,18.33,14.35,27.5,37.33,27.5,68.94Zm-62.56,39.45c9.56-8.23,14.35-21.45,14.35-39.65s-4.92-30.68-14.74-37.46c-9.83-6.77-27.36-10.16-52.6-10.16h-53.87c-3.26,0-5.9,2.64-5.9,5.9v87.82c0,3.26,2.64,5.9,5.9,5.9h52.68c26.56,0,44.63-4.12,54.19-12.35Z"/>
      <g>
        <path class="cls-1" d="m660.1,73.52c19.13-18.2,42.77-27.3,70.93-27.3,15.94,0,29.82,2.53,41.64,7.57,8.61,3.68,17.61,9.4,27,17.17,2.83,2.34,7.1,1.68,9.02-1.46,5.57-9.09,12.1-17.52,19.46-25.16,2.42-2.51,2.27-6.5-.34-8.82C801.16,11.84,769.24,0,732.03,0c-43.18,0-78.9,13.81-107.19,41.44-28.3,27.63-42.44,62.16-42.44,103.61s13.88,75.71,41.64,102.81c27.76,27.09,62.69,40.64,104.8,40.64,36.34,0,67.99-12.18,94.94-36.52,2.47-2.23,2.61-6.05.4-8.54-6.9-7.76-12.99-16.26-18.13-25.36-1.86-3.29-6.25-4.06-9.15-1.65-9.51,7.91-18.71,13.93-27.59,18.08-11.7,5.44-25.64,8.16-41.84,8.16-26.04,0-48.56-9.49-67.55-28.49-18.99-18.99-28.49-42.63-28.49-70.93s9.56-51.53,28.69-69.73Z"/>
        <path class="cls-1" d="m1064.8,246.86c-28.16,27.5-62.96,41.24-104.4,41.24s-76.25-13.75-104.4-41.24c-28.16-27.5-42.24-61.77-42.24-102.81s14.08-75.31,42.24-102.81C884.15,13.75,918.95,0,960.4,0s76.24,13.75,104.4,41.24c28.16,27.5,42.24,61.77,42.24,102.81s-14.08,75.31-42.24,102.81Zm-34.47-174.34c-19-19.66-42.31-29.49-69.93-29.49s-50.94,9.83-69.93,29.49c-19,19.66-28.49,43.5-28.49,71.53s9.5,51.87,28.49,71.53c18.99,19.66,42.3,29.49,69.93,29.49s50.94-9.83,69.93-29.49c18.99-19.66,28.49-43.5,28.49-71.53s-9.5-51.87-28.49-71.53Z"/>
        <path class="cls-1" d="m1350.25,97.23c0,42.95-17.52,71.04-52.53,84.3-3.77,1.43-5.12,6.06-2.77,9.33l61.03,84.71c2.93,4.07.02,9.75-4.99,9.75h-44.58c-1.99,0-3.86-.96-5.02-2.59l-62.87-88.47c-1.15-1.62-3.02-2.59-5.02-2.59h-52.44c-3.4,0-6.15,2.75-6.15,6.15v81.34c0,3.4-2.75,6.15-6.15,6.15h-34.72c-3.4,0-6.15-2.75-6.15-6.15V12.93c0-3.4,2.75-6.15,6.15-6.15h97.45c42.5,0,72.92,7.17,91.25,21.52,18.33,14.35,27.5,37.33,27.5,68.94Zm-62.56,39.45c9.56-8.23,14.35-21.45,14.35-39.65s-4.92-30.68-14.74-37.46c-9.83-6.77-27.36-10.16-52.6-10.16h-53.62c-3.4,0-6.15,2.75-6.15,6.15v87.32c0,3.4,2.75,6.15,6.15,6.15h52.43c26.56,0,44.63-4.12,54.19-12.35Z"/>
        <path class="cls-1" d="m1589.8,43.24c26.83,24.31,40.25,58.12,40.25,101.41s-13.02,77.57-39.05,102.81c-26.04,25.24-65.89,37.86-119.54,37.86h-86.26c-3.42,0-6.19-2.77-6.19-6.19V12.96c0-3.42,2.77-6.19,6.19-6.19h89.45c49.94,0,88.33,12.15,115.16,36.46Zm-7.17,102.61c0-63.76-36.53-95.64-109.58-95.64h-40.83c-3.42,0-6.19,2.77-6.19,6.19v178.49c0,3.42,2.77,6.19,6.19,6.19h46.01c33.73,0,59.57-8.03,77.51-24.11,17.93-16.07,26.9-39.78,26.9-71.13Z"/>
      </g>
      <g>
        <rect class="cls-2" x="263.49" y="6.77" width="278.11" height="44.23" rx="22.12" ry="22.12"/>
        <rect class="cls-2" x="263.49" y="122.85" width="256.15" height="44.23" rx="22.12" ry="22.12"/>
        <rect class="cls-2" x="263.49" y="241.08" width="284.91" height="44.23" rx="22.12" ry="22.12"/>
      </g>
    </g>
  </g>
</svg>